# xmcd
#
# Track frame offsets:
#	150
#	16425
#	34128
#	49474
#	63213
#	82623
#	99293
#	114872
#	129278
#	142744
#	156094
#	176231
#
# Disc length: 2586 seconds
# Revision: 0
# Processed by: cddbd v1.5.2PL0 Copyright (c) Steve Scherf et al.
# Submitted via: dBpowerAMP V12.0
#
DISCID=8b0a180c
DTITLE=Andy Gibson - Feel Good
DYEAR=2009
DGENRE=Country
TTITLE0=All Access Pass
TTITLE1=Feel Good
TTITLE2=For the First Time
TTITLE3=How I Feel
TTITLE4=Glad It Was Mine
TTITLE5=Everything I Am
TTITLE6=Better Days
TTITLE7=The Way UR
TTITLE8=Favorite Song
TTITLE9=No Plans
TTITLE10=Long Road
TTITLE11=Cure Kids Cancer "Feel Good" Music Montage
EXTD=
EXTT0=
EXTT1=
EXTT2=
EXTT3=
EXTT4=
EXTT5=
EXTT6=
EXTT7=
EXTT8=
EXTT9=
EXTT10=
EXTT11=
PLAYORDER=
